<svg width="19" height="18" viewBox="0 0 19 18" fill="none" xmlns="http://www.w3.org/2000/svg">
<path d="M14.8957 10.9902C14.6607 11.2179 14.5528 11.5471 14.6063 11.8701L15.4127 16.3331C15.4808 16.7114 15.3211 17.0942 15.0045 17.3128C14.6943 17.5396 14.2815 17.5668 13.9432 17.3854L9.92551 15.2899C9.78582 15.2156 9.6307 15.1757 9.47195 15.1711H9.22612C9.14085 15.1838 9.05739 15.211 8.9812 15.2528L4.96263 17.3582C4.76397 17.458 4.539 17.4934 4.31857 17.458C3.78155 17.3564 3.42323 16.8448 3.51123 16.305L4.31857 11.842C4.37209 11.5163 4.26414 11.1852 4.02919 10.9539L0.753562 7.77895C0.47961 7.51316 0.384362 7.11402 0.509546 6.75389C0.6311 6.39467 0.941338 6.13251 1.31598 6.07355L5.8244 5.41951C6.16729 5.38413 6.46846 5.1755 6.62267 4.86707L8.60927 0.794077C8.65644 0.703365 8.71722 0.619909 8.7907 0.549153L8.87234 0.485655C8.91497 0.438484 8.96396 0.399478 9.01839 0.367728L9.11726 0.331443L9.27148 0.267944H9.65337C9.99445 0.303322 10.2947 0.507426 10.4516 0.81222L12.4646 4.86707C12.6097 5.1637 12.8918 5.36962 13.2175 5.41951L17.7259 6.07355C18.1069 6.12798 18.4253 6.39104 18.5514 6.75389C18.6702 7.11765 18.5677 7.51679 18.2883 7.77895L14.8957 10.9902Z" fill="#DE8F32"/>
</svg>
